<?xml version="1.0" standalone="no"?>
<!DOCTYPE svg PUBLIC "-//W3C//DTD SVG 20010904//EN"
 "http://www.w3.org/TR/2001/REC-SVG-20010904/DTD/svg10.dtd">
<svg version="1.0" xmlns="http://www.w3.org/2000/svg"
 width="965.000000pt" height="742.000000pt" viewBox="0 0 965.000000 742.000000"
 preserveAspectRatio="xMidYMid meet">
<metadata>
Created by potrace 1.11, written by Peter Selinger 2001-2013
</metadata>
<g transform="translate(0.000000,742.000000) scale(0.100000,-0.100000)"
fill="#000000" stroke="none">
<path d="M8195 7080 c-45 -11 -88 -36 -116 -66 -13 -14 -67 -54 -119 -88 -119
-78 -320 -218 -805 -561 -209 -148 -477 -337 -595 -420 -118 -83 -271 -191
-340 -240 -69 -49 -240 -170 -380 -269 -283 -199 -349 -246 -560 -396 -163
-116 -380 -270 -533 -377 -56 -39 -133 -93 -171 -120 -116 -82 -133 -80 -177
15 -16 36 -38 71 -48 78 -16 12 -18 19 -9 54 8 30 7 59 -5 118 -12 55 -13 89
-7 117 5 22 10 61 10 86 0 33 6 51 21 65 24 22 109 189 109 215 0 10 27 59 61
109 109 164 146 285 113 368 -37 92 -69 145 -103 168 -20 14 -54 38 -76 55
-22 16 -60 39 -85 51 -25 11 -52 26 -60 33 -50 43 -128 72 -207 78 -46 4 -109
13 -140 21 -32 7 -121 17 -199 20 -141 6 -178 1 -236 -30 -18 -10 -40 -13 -60
-9 -41 8 -174 -34 -221 -68 -17 -14 -53 -32 -79 -42 -26 -10 -61 -33 -76 -51
-19 -22 -38 -34 -55 -34 -14 0 -43 -15 -67 -35 -23 -19 -46 -35 -51 -35 -4 0
-32 -20 -62 -44 -30 -24 -63 -47 -74 -50 -11 -4 -28 -15 -38 -26 -10 -11 -24
-20 -32 -20 -7 0 -13 -7 -13 -15 0 -8 -12 -17 -27 -20 -41 -9 -129 -56 -171
-91 -20 -17 -48 -37 -62 -44 -23 -12 -39 -24 -139 -100 -22 -16 -47 -30 -55
-30 -8 0 -31 -13 -49 -30 -23 -19 -46 -30 -65 -30 -17 0 -34 -5 -37 -11 -4 -6
-39 -34 -79 -64 -130 -96 -179 -147 -219 -229 -20 -42 -37 -82 -37 -89 0 -14
-76 -146 -141 -243 -25 -38 -54 -96 -64 -129 -11 -33 -26 -68 -34 -78 -9 -11
-16 -50 -20 -110 -7 -135 -6 -156 17 -227 44 -139 65 -187 105 -238 23 -29 52
-68 64 -87 13 -19 45 -51 72 -72 128 -99 156 -121 206 -165 35 -30 60 -45 70
-42 20 8 52 -21 77 -69 42 -83 191 -207 247 -207 15 0 28 -15 46 -50 17 -33
35 -54 53 -61 36 -13 122 -99 122 -120 0 -10 -12 -31 -26 -48 -19 -23 -34 -31
-58 -31 -30 0 -75 -18 -251 -100 -69 -33 -149 -56 -220 -65 -27 -4 -97 -18
-155 -31 -58 -14 -116 -27 -129 -30 -38 -8 -131 -102 -131 -134 0 -28 -27 -58
-90 -100 -64 -44 -152 -124 -167 -154 -9 -17 -28 -67 -43 -111 -17 -52 -44
-103 -72 -141 -202 -266 -354 -585 -377 -793 -5 -49 -14 -98 -19 -108 -22 -43
-23 -91 -2 -152 14 -39 19 -72 15 -91 -7 -33 -80 -150 -94 -150 -5 0 -9 -12
-10 -27 0 -16 0 -38 -1 -51 0 -13 -9 -58 -21 -100 -27 -102 -38 -367 -18 -436
l13 -46 418 0 418 0 0 43 c0 30 -7 53 -25 77 -28 37 -31 60 -14 93 9 16 9 22
0 25 -6 2 -11 13 -11 25 0 39 35 136 58 159 22 24 109 74 116 67 16 -16 2
-235 -17 -265 -4 -7 3 -24 14 -38 17 -21 20 -36 15 -64 -4 -24 0 -51 11 -77
l16 -40 1196 1 c658 1 1329 2 1492 3 l296 1 11 52 c6 29 18 78 27 108 8 30 20
87 26 125 21 148 40 234 77 355 23 77 72 323 72 363 0 40 25 88 72 142 46 52
66 55 123 21 22 -14 78 -45 125 -70 81 -44 88 -46 143 -40 32 4 75 15 95 25
48 25 59 24 74 -5 11 -21 79 -76 94 -76 3 0 17 -8 32 -19 226 -155 530 -291
730 -326 106 -19 143 -19 233 0 96 20 153 53 232 133 70 71 93 120 122 258 36
168 53 795 27 964 -7 41 -14 104 -17 139 -2 35 -9 100 -14 145 -6 44 -13 128
-16 186 -6 85 -14 128 -47 225 -46 136 -61 255 -52 415 10 186 17 208 95 295
81 92 117 159 129 248 5 35 14 76 19 89 14 38 57 66 109 73 26 4 56 11 67 16
24 11 139 34 215 44 30 4 181 29 335 56 154 27 384 68 510 90 127 22 300 53
385 69 85 17 189 35 230 40 41 6 82 12 90 15 8 3 45 9 82 14 236 33 358 209
358 516 0 122 -21 313 -46 410 -135 534 -318 966 -576 1360 -36 55 -70 114
-75 130 -7 20 -16 29 -27 27 -10 -2 -56 34 -114 89 -98 92 -179 141 -277 168
-45 12 -155 13 -200 1z m-2425 -3330 c11 -11 20 -24 20 -30 0 -5 9 -10 19 -10
17 0 19 -8 20 -71 0 -39 6 -86 12 -104 16 -44 8 -59 -40 -74 -55 -16 -101 -77
-101 -134 0 -62 111 -217 155 -217 7 0 18 -6 24 -14 16 -19 204 -110 268 -130
28 -9 66 -16 82 -16 33 0 37 -9 21 -41 -8 -14 -7 -25 2 -41 20 -37 38 -91 38
-118 0 -14 7 -43 15 -65 16 -46 20 -400 5 -520 -13 -104 -40 -237 -54 -265
-15 -31 -63 -32 -102 -1 -15 12 -33 21 -41 21 -7 0 -16 13 -19 30 -5 22 -21
39 -59 65 -29 19 -80 64 -113 100 -51 56 -64 65 -94 65 -31 0 -36 4 -41 28 -6
27 -52 76 -150 155 -26 21 -53 51 -60 67 -20 46 -130 173 -168 194 -56 29
-122 16 -167 -35 -49 -54 -72 -52 -120 14 -21 28 -48 68 -59 87 -42 69 -78 94
-146 102 -146 18 -148 18 -166 51 -9 17 -30 46 -47 64 -29 30 -37 33 -90 33
-33 0 -92 -5 -133 -10 l-74 -10 -101 49 c-89 42 -111 49 -185 54 -62 4 -91 11
-110 25 -24 18 -26 25 -25 96 2 94 23 126 85 126 21 0 41 5 44 10 3 6 27 10
52 10 32 0 53 6 67 19 12 10 68 38 125 62 80 33 117 55 155 91 36 34 62 50 88
54 46 8 98 39 98 59 0 8 12 17 28 20 15 3 43 10 62 15 30 8 109 21 270 44 19
3 58 9 85 15 28 5 78 14 112 19 34 6 77 15 95 20 18 6 85 18 148 28 63 9 122
20 130 25 8 5 39 9 68 9 39 0 57 -5 72 -20z"/>
</g>
</svg>
