<?xml version="1.0" standalone="no"?>
<!DOCTYPE svg PUBLIC "-//W3C//DTD SVG 20010904//EN"
 "http://www.w3.org/TR/2001/REC-SVG-20010904/DTD/svg10.dtd">
<svg version="1.0" xmlns="http://www.w3.org/2000/svg"
 width="1046.000000pt" height="696.000000pt" viewBox="0 0 1046.000000 696.000000"
 preserveAspectRatio="xMidYMid meet" class="logo">
<metadata>
Created by potrace 1.11, written by Peter Selinger 2001-2013
</metadata>
<g transform="translate(0.000000,696.000000) scale(0.100000,-0.100000)"
fill="#000000" stroke="none">
<path d="M0 3480 l0 -3480 745 0 745 0 -10 26 c-13 33 -13 336 0 385 6 22 15
58 21 82 6 23 38 106 71 184 l61 142 -22 41 c-26 49 -28 137 -5 181 8 17 20
72 25 122 5 51 18 115 29 142 10 28 30 79 44 115 55 146 79 192 179 351 59 94
95 146 144 206 31 39 43 64 48 100 13 104 83 194 210 275 54 34 78 63 90 107
7 24 29 54 67 89 54 51 60 54 130 63 40 5 100 16 133 26 33 9 87 19 120 24 88
11 161 34 213 69 25 16 50 30 56 30 6 0 38 14 71 30 38 19 75 30 102 30 39 0
45 4 68 40 33 53 32 80 -8 118 -28 28 -40 32 -85 32 -56 0 -73 14 -87 73 -5
18 -16 29 -34 34 -82 19 -206 127 -257 223 -26 49 -33 55 -64 58 -39 4 -65 23
-86 64 -8 16 -22 28 -32 28 -9 0 -56 34 -105 76 -65 57 -87 82 -87 100 0 18
-9 30 -32 42 -40 21 -104 87 -124 127 -8 17 -21 41 -29 55 -8 14 -15 39 -15
55 0 17 -6 55 -14 84 -14 56 -11 217 5 227 5 3 9 17 9 32 1 87 59 229 128 314
17 22 32 48 32 59 0 10 15 36 33 56 19 22 41 64 51 98 10 33 27 76 39 95 52
89 229 234 337 276 25 10 60 30 78 46 18 15 39 28 46 28 7 0 23 12 37 26 13
14 40 35 59 45 19 11 60 38 90 60 96 69 154 106 180 114 23 7 87 47 160 100
15 11 40 29 56 39 16 11 40 30 54 42 43 39 120 74 146 68 21 -5 26 -1 39 30
10 23 26 40 43 46 38 14 84 40 108 62 34 31 95 44 304 66 36 4 77 16 93 26 31
21 95 16 134 -9 16 -11 46 -14 101 -12 63 1 84 -2 98 -15 38 -33 135 -60 220
-62 75 -1 84 -3 109 -28 15 -16 34 -28 42 -28 32 0 129 -42 147 -62 10 -13 37
-32 60 -43 60 -29 95 -105 103 -224 5 -80 4 -93 -16 -126 -11 -20 -21 -44 -21
-54 0 -9 -17 -41 -37 -69 -62 -85 -90 -135 -98 -172 -4 -19 -20 -54 -36 -77
-16 -23 -29 -51 -29 -62 0 -11 -13 -36 -30 -54 -21 -24 -30 -45 -30 -68 0 -19
-7 -47 -15 -63 -19 -36 -19 -75 -1 -95 18 -20 23 -144 7 -185 -10 -24 -9 -32
6 -48 14 -16 18 -39 19 -116 2 -107 9 -119 52 -80 15 13 47 39 72 57 25 18 77
55 115 83 39 28 99 70 135 95 36 24 85 59 110 78 46 35 122 89 259 182 42 29
106 74 143 100 101 72 374 267 511 365 67 48 173 124 235 170 124 91 139 102
233 167 35 24 91 63 124 87 97 71 432 307 462 326 16 10 69 47 118 83 87 63
152 109 225 160 19 13 48 34 64 47 27 21 163 117 303 213 32 22 86 60 120 85
34 25 86 62 115 83 29 21 82 59 118 86 36 26 77 52 90 56 14 4 45 27 70 51 53
52 150 94 232 101 44 5 76 0 143 -21 119 -37 198 -91 313 -212 206 -217 437
-633 587 -1054 14 -41 37 -104 50 -140 13 -36 40 -126 60 -200 20 -74 43 -155
50 -180 24 -80 45 -265 45 -397 0 -213 -38 -340 -132 -440 -56 -58 -137 -101
-206 -109 -127 -13 -234 -30 -442 -68 -74 -13 -202 -36 -285 -50 -82 -15 -181
-33 -220 -41 -38 -8 -124 -24 -190 -35 -221 -38 -340 -58 -370 -63 -16 -3 -86
-15 -155 -26 -69 -11 -141 -21 -161 -21 -21 0 -47 -8 -62 -20 -15 -12 -40 -20
-64 -20 -21 0 -51 -7 -67 -15 -15 -8 -38 -15 -50 -15 -38 0 -46 -19 -46 -112
0 -121 -25 -172 -107 -218 -56 -31 -133 -96 -133 -112 0 -4 6 -8 14 -8 36 0
41 -28 42 -244 0 -226 5 -256 54 -381 26 -65 33 -103 41 -205 5 -69 14 -170
20 -225 29 -282 34 -383 33 -645 0 -268 -14 -501 -34 -580 -29 -115 -46 -161
-78 -208 -48 -72 -147 -160 -191 -171 -105 -26 -138 -31 -214 -31 -97 1 -194
23 -358 83 -92 34 -340 159 -411 209 -14 10 -30 18 -35 18 -18 1 -149 98 -159
118 -6 12 -13 25 -16 27 -4 5 -44 -5 -144 -36 -17 -5 -42 -9 -55 -9 -30 0
-139 53 -191 93 -20 15 -52 31 -71 34 -32 5 -39 1 -86 -48 -51 -53 -71 -96
-71 -154 0 -16 -10 -73 -21 -125 -11 -52 -27 -126 -34 -165 -7 -38 -18 -83
-25 -100 -26 -65 -44 -144 -70 -315 -14 -94 -25 -142 -38 -167 -7 -12 -12 -40
-12 -62 l0 -41 2485 0 2485 0 0 3480 0 3480 -5230 0 -5230 0 0 -3480z"/>
<path d="M6360 3534 c-25 -7 -63 -13 -85 -14 -22 0 -67 -7 -100 -15 -114 -27
-150 -34 -250 -49 -55 -9 -116 -18 -135 -21 -19 -3 -72 -10 -117 -15 -45 -5
-99 -13 -120 -19 -21 -5 -50 -12 -65 -15 -15 -3 -29 -15 -33 -25 -3 -12 -31
-29 -73 -46 -37 -15 -85 -44 -108 -65 -46 -43 -88 -65 -181 -99 -73 -27 -80
-34 -85 -81 -2 -29 -6 -34 -23 -30 -11 3 -57 5 -102 5 -75 0 -85 -2 -108 -25
-18 -19 -27 -41 -32 -78 -6 -50 -5 -53 31 -86 38 -34 81 -46 167 -46 l38 0 4
48 3 47 2 -46 c2 -43 5 -48 35 -59 17 -7 41 -21 52 -30 41 -36 88 -43 198 -29
155 19 195 4 232 -84 9 -22 22 -37 32 -37 9 0 44 -6 77 -14 34 -8 78 -17 98
-21 62 -10 94 -44 160 -169 36 -70 82 -78 132 -22 32 34 36 36 101 36 l66 0
61 -57 c33 -32 75 -85 94 -119 19 -34 42 -68 50 -75 30 -24 35 -47 20 -78 -9
-16 -17 -48 -18 -72 -3 -37 0 -45 22 -56 25 -14 125 -12 198 3 30 6 36 2 97
-64 36 -39 85 -82 110 -96 48 -29 66 -65 45 -92 -9 -10 -10 -18 -3 -25 12 -12
141 -32 154 -24 10 7 24 56 46 164 24 114 30 577 8 642 -8 26 -15 57 -15 69 0
11 -11 48 -25 81 -18 45 -22 66 -15 79 15 27 13 30 -20 30 -41 0 -158 39 -199
67 -19 13 -40 23 -47 23 -27 0 -84 34 -84 50 0 9 9 25 20 35 22 20 26 55 10
86 -8 15 -22 19 -58 19 -119 1 -172 35 -172 111 0 40 6 55 31 84 17 19 51 44
76 55 40 17 44 23 38 42 -11 37 -24 140 -18 155 3 7 -12 29 -33 48 -33 31 -44
35 -88 34 -28 -1 -71 -7 -96 -15z"/>
<path d="M2389 448 c-60 -32 -67 -42 -93 -129 -21 -74 -20 -134 4 -188 11 -24
20 -63 20 -87 l0 -44 79 0 79 0 7 65 c4 43 2 83 -6 116 -10 39 -10 56 -1 84
11 28 10 40 -3 71 -8 20 -15 58 -15 85 0 26 -3 50 -7 52 -5 3 -33 -9 -64 -25z"/>
</g>
</svg>
